<svg xmlns="http://www.w3.org/2000/svg" xmlns:xlink="http://www.w3.org/1999/xlink" viewBox="0 0 610 170"><defs><style>.cls-1{fill:none;}.cls-2{clip-path:url(#clip-path);}.cls-3{fill:url(#linear-gradient);}.cls-4{clip-path:url(#clip-path-2);}.cls-5{fill:url(#linear-gradient-2);}.cls-6{clip-path:url(#clip-path-3);}.cls-7{fill:url(#linear-gradient-3);}.cls-8{clip-path:url(#clip-path-4);}.cls-9{fill:url(#linear-gradient-4);}.cls-10{clip-path:url(#clip-path-5);}.cls-11{fill:url(#linear-gradient-5);}.cls-12{clip-path:url(#clip-path-6);}.cls-13{fill:url(#linear-gradient-6);}.cls-14{clip-path:url(#clip-path-7);}.cls-15{fill:url(#linear-gradient-7);}.cls-16{clip-path:url(#clip-path-8);}.cls-17{fill:url(#linear-gradient-8);}.cls-18{clip-path:url(#clip-path-9);}.cls-19{fill:url(#linear-gradient-9);}.cls-20{clip-path:url(#clip-path-10);}.cls-21{fill:url(#linear-gradient-10);}.cls-22{clip-path:url(#clip-path-11);}.cls-23{fill:url(#linear-gradient-11);}.cls-24{clip-path:url(#clip-path-12);}.cls-25{fill:url(#linear-gradient-12);}.cls-26{clip-path:url(#clip-path-13);}.cls-27{fill:url(#linear-gradient-13);}.cls-28{clip-path:url(#clip-path-14);}.cls-29{fill:url(#linear-gradient-14);}.cls-30{clip-path:url(#clip-path-15);}.cls-31{fill:url(#linear-gradient-15);}.cls-32{clip-path:url(#clip-path-16);}.cls-33{fill:url(#linear-gradient-16);}.cls-34{fill:#414042;}</style><clipPath id="clip-path"><path class="cls-1" d="M92.77,53.46c0,3.88,0,7.77,0,11.66,0,.9-.25,1.18-1.16,1.16-1.9-.06-3.81,0-5.71,0-2.07,0-4.14,0-6.22-.06-.65,0-.91.19-.9.88q0,7.44,0,14.87c0,.66.2.92.89.89a21.15,21.15,0,0,1,4.13.15c1.2.18,1.83-.49,1.87-1.74,0-.86,0-1.72,0-2.58a30,30,0,0,1,.11-4.13c0-.19.08-.39.14-.58h6.55l6.56,0c.71,0,1-.17,1-.93q0-9.9,0-19.81c0-.66-.09-1-.9-1-1.73,0-3.46.07-5.19,0h-.14c-.82,0-1,.35-1,1.19"/></clipPath><linearGradient id="linear-gradient" x1="-699.04" y1="211.47" x2="-698.07" y2="211.47" gradientTransform="matrix(120.81, 0, 0, -120.81, 84461.77, 25614.86)" gradientUnits="userSpaceOnUse"><stop offset="0" stop-color="#52fc73"/><stop offset="0.16" stop-color="#46f187"/><stop offset="0.43" stop-color="#34dfa6"/><stop offset="0.45" stop-color="#31dcab"/><stop offset="0.65" stop-color="#1dc9cd"/><stop offset="0.82" stop-color="#11bde2"/><stop offset="0.92" stop-color="#0cb9ea"/><stop offset="1" stop-color="#0cb9ea"/></linearGradient><clipPath id="clip-path-2"><path class="cls-1" d="M36.31,51.36c-.17,3.84-.46,7.67-.62,11.5a2.2,2.2,0,0,1-.09.57.89.89,0,0,1-.22.38,1.31,1.31,0,0,1-.88.32c-3.13-.19-6.27-.12-9.41-.1C24,64,23,64,22,64c-.59,0-.72.28-.72.8q0,10.23,0,20.44c0,.69.26.89.91.88,1.65,0,3.29-.09,4.93,0,1.2.08,1.43-.38,1.41-1.47-.06-3.88,0-7.76,0-11.64,0-.89.24-1.2,1.16-1.19a31,31,0,0,0,4.91-.09,43.93,43.93,0,0,0,5.13.11c.84,0,1.68,0,2.51,0s.92-.36.92-1q0-9.85,0-19.69c0-.73-.2-1-1-1-1.51,0-3,.08-4.54,0h-.19c-.84,0-1,.37-1.07,1.24"/></clipPath><linearGradient id="linear-gradient-2" x1="-699.04" y1="211.47" x2="-698.07" y2="211.47" gradientTransform="matrix(120.81, 0, 0, -120.81, 84461.75, 25615.31)" xlink:href="#linear-gradient"/><clipPath id="clip-path-3"><path class="cls-1" d="M69.13,90.18c-1.61,0-3.23,0-4.85,0-.75,0-.68.47-.68,1,0,7.33,0,14.67,0,22,0,.84.32,1,1.06,1,1.52,0,3-.09,4.54,0,1.13.07,1.36-.39,1.4-1.39.16-4.4.39-8.78.59-13.17.09-2.2.08-2.2,2.31-2.33a3.06,3.06,0,0,0,.51-.1c2.27.17,4.55.14,6.82.11,1.13,0,2.26,0,3.39,0,.58,0,.87-.24.86-.85,0-1.76,0-3.53,0-5.3,0-.57-.21-.88-.83-.88-1.27,0-2.55,0-3.83,0-2.13,0-4.26,0-6.38.12-1.29-.11-2.58-.13-3.87-.13h-1"/></clipPath><linearGradient id="linear-gradient-3" x1="-699.04" y1="211.47" x2="-698.07" y2="211.47" gradientTransform="matrix(120.81, 0, 0, -120.81, 84463, 25650.08)" xlink:href="#linear-gradient"/><clipPath id="clip-path-4"><path class="cls-1" d="M47.84,95c0,3.11-.06,6.21-.08,9.32,0,2.9-.31,3.25-3.12,3.65-3.22-.3-6.44-.56-9.65-.92-.84-.1-1.05.09-1.05.9q0,9.9,0,19.79c0,.86.33,1,1.07,1,1.55,0,3.11,0,4.66,0,.86,0,1.07-.26,1.11-1.1.12-3.36.33-6.71.53-10.07C41.47,115,41.48,115,44,115c.21,0,.43,0,.64,0,3.16,0,6.31,0,9.47,0,.66,0,.9-.18.9-.87q0-9.77,0-19.54c0-.67-.21-.91-.89-.9-1.65,0-3.29.08-4.93,0H49c-.93,0-1.17.48-1.18,1.36"/></clipPath><linearGradient id="linear-gradient-4" x1="-699.04" y1="211.48" x2="-698.07" y2="211.48" gradientTransform="matrix(120.81, 0, 0, -120.81, 84463.3, 25659.62)" xlink:href="#linear-gradient"/><clipPath id="clip-path-5"><path class="cls-1" d="M35.75,80.32c-.18,3-.46,6-.67,9-.19,2.73-.17,2.73-2.9,2.94-2.6,0-5.19,0-7.78-.07-.68,0-.91.25-.9.91,0,1.86,0,3.71,0,5.57,0,.56.14.92.78.91,1,0,2,0,3,0a45.08,45.08,0,0,0,4.93-.12,51.23,51.23,0,0,0,5.4.11c1.08,0,2.16,0,3.24,0s1.24-.21,1.28-1.19c.14-3.6.41-7.19.62-10.79,0-.49,0-1,.62-1.12a74.79,74.79,0,0,0,9.35,0,29,29,0,0,0,4.17.11l1.75,0c.64,0,.9-.24.89-.92,0-1.84,0-3.69,0-5.54,0-.64-.16-.93-.86-.91-1,0-2,0-3,.05l-3,0H43.35c-2.16,0-4.32,0-6.48-.08h-.11c-.77,0-1,.31-1,1.09"/></clipPath><linearGradient id="linear-gradient-5" x1="-699.04" y1="211.47" x2="-698.07" y2="211.47" gradientTransform="matrix(120.81, 0, 0, -120.81, 84462.52, 25637.11)" xlink:href="#linear-gradient"/><clipPath id="clip-path-6"><path class="cls-1" d="M71.48,25.58c-1.82.06-3.63,0-5.45,0-.68,0-.88.23-.88.9q0,9.63,0,19.27c0,.61.19.82.81.82,3,0,6.05,0,9.07-.06a11,11,0,0,0,1.81,0c1.16-.16,1.45.28,1.43,1.42-.07,4,0,7.94,0,11.92,0,.84.24,1.14,1.1,1.11,1.73-.05,3.47-.06,5.19,0,.9,0,1.18-.22,1.18-1.15q-.06-9.65,0-19.3c0-.89-.37-1.1-1.09-1.14L75,38.88a4.58,4.58,0,0,0-1-.09c-1.33.18-1.64-.38-1.61-1.66.1-3.49,0-7,0-10.48,0-.7-.1-1.07-.88-1.07h-.09"/></clipPath><linearGradient id="linear-gradient-6" x1="-699.04" y1="211.46" x2="-698.07" y2="211.46" gradientTransform="matrix(120.81, 0, 0, -120.81, 84460.9, 25589.72)" xlink:href="#linear-gradient"/><clipPath id="clip-path-7"><path class="cls-1" d="M97.54,83.45c-1.84.18-3.69.29-5.54.4-.52,0-.78.18-.78.75q0,7.38,0,14.75c0,.59.22.83.84.83l6.41,0,6.42,0,3.61,0,3.62,0c.6,0,.84-.17.83-.8,0-1.85,0-3.7,0-5.55,0-.52-.12-.8-.71-.78H110.4a53.38,53.38,0,0,0-5.51.1,28.65,28.65,0,0,0-4.63-.1h-.67c-.9,0-1.19-.27-1.17-1.17.06-2.5,0-5,0-7.5,0-.62-.07-1-.7-1h-.21"/></clipPath><linearGradient id="linear-gradient-7" x1="-699.04" y1="211.47" x2="-698.07" y2="211.47" gradientTransform="matrix(120.81, 0, 0, -120.81, 84462.64, 25639.84)" xlink:href="#linear-gradient"/><clipPath id="clip-path-8"><path class="cls-1" d="M134.91,83.51c0,2.72.11,5.44.09,8.16a5.56,5.56,0,0,1-.24,2.65c-4.19,0-8.39,0-12.59,0-.63,0-.93.11-.93.84,0,6.61,0,13.22,0,19.83,0,.6.18.81.81.82,1.77,0,3.54.11,5.3.28,1,.09,1.25-.21,1.23-1.18-.05-4.11,0-8.21,0-12.31,0-.76.11-1,1-1,1.71.17,3.45.15,5.18.2,2.19.15,4.39.26,6.58.45.95.08,1.15-.27,1.14-1.15q0-9.92,0-19.83c0-.82-.06-1.3-1.12-1.11a8.31,8.31,0,0,1-2.58-.1,8.68,8.68,0,0,0-1-.07c-2,0-2.94,1.14-2.89,3.51"/></clipPath><linearGradient id="linear-gradient-8" x1="-699.04" y1="211.48" x2="-698.07" y2="211.48" gradientTransform="matrix(120.81, 0, 0, -120.81, 84462.88, 25646.22)" xlink:href="#linear-gradient"/><clipPath id="clip-path-9"><path class="cls-1" d="M121.5,67.58c0,3.58,0,7.16,0,10.75,0,.45.15,1-.24,1.35a1.81,1.81,0,0,0-.37-.09c-5.31,0-10.62,0-15.93,0-.71,0-.88.27-.86.92,0,1.85,0,3.7,0,5.55,0,.62.11.94.84.93l8.15,0,8.16,0h1.68c1.67,0,3.35,0,5,.07.92,0,1.15-.28,1.14-1.16-.05-3.57,0-7.13,0-10.69,0-.76.11-1.27,1-1.19,3.06,0,6.12,0,9.18.08.77,0,.93-.3.92-1q-.06-2.77,0-5.55c0-.7-.15-1-.92-1l-4.59,0-4.59,0c-2.51,0-5,0-7.52-.07h-.1c-.78,0-1,.29-1,1.09"/></clipPath><linearGradient id="linear-gradient-9" x1="-699.04" y1="211.47" x2="-698.07" y2="211.47" gradientTransform="matrix(120.81, 0, 0, -120.81, 84462.12, 25624.32)" xlink:href="#linear-gradient"/><clipPath id="clip-path-10"><path class="cls-1" d="M122.11,38.54c.08,3.92,0,7.84,0,11.77,0,1-.28,1.35-1.3,1.3-1.33,0-2.67,0-4,.08a41.16,41.16,0,0,0-4.84-.11c-.93,0-1.87,0-2.8,0-.76,0-.65.53-.65,1,0,6.22,0,12.43,0,18.65,0,.86.35,1,1.08,1,1.65,0,3.29-.07,4.93,0,1,0,1.24-.26,1.23-1.23-.06-3.67,0-7.34,0-11,0-.86.17-1.32,1.09-1.25,3.94,0,7.87,0,11.8.07.66,0,.9-.19.9-.88q0-9.9,0-19.79c0-.8-.33-.92-1-.91-1.69,0-3.38.08-5.06,0h-.23c-.87,0-1.17.31-1.15,1.34"/></clipPath><linearGradient id="linear-gradient-10" x1="-699.04" y1="211.46" x2="-698.07" y2="211.46" gradientTransform="matrix(120.81, 0, 0, -120.81, 84461.33, 25601.54)" xlink:href="#linear-gradient"/><clipPath id="clip-path-11"><path class="cls-1" d="M84.06,105.08c-1.64.06-3.29.06-4.93,0-.92,0-1.17.27-1.17,1.16q.06,9.84,0,19.69c0,.93.32,1.16,1.2,1.15h4.65c1.91,0,3.82,0,5.73,0,1.06,0,1.41.24,1.39,1.34-.07,3.71,0,7.43,0,11.14,0,.37-.36,1,.47,1.07h1.67c1.35,0,2.69,0,4,.06,1,.05,1.32-.22,1.3-1.27-.06-4.44,0-8.88,0-13.32,0-2.15-.06-4.3-.09-6.45v-.1h-.1a59,59,0,0,0-6.78,0l-1.26,0c-1.27,0-2.53-.06-3.79,0-1,0-1.25-.24-1.24-1.22.06-4,0-8,0-12,0-.79-.18-1.12-1-1.12h-.13"/></clipPath><linearGradient id="linear-gradient-11" x1="-699.04" y1="211.48" x2="-698.07" y2="211.48" gradientTransform="matrix(120.81, 0, 0, -120.81, 84463.74, 25671.71)" xlink:href="#linear-gradient"/><clipPath id="clip-path-12"><path class="cls-1" d="M68.92,122c-2,.07-4.06.05-6.1.06H55c-1.81,0-3.62,0-5.43,0-.57,0-.86.13-.85.78,0,1.94,0,3.87,0,5.81,0,.43.06.76.61.77a38.33,38.33,0,0,0,5.67,0c2.52.24,5,.09,7.55.08q0,5.92.07,11.85a3.18,3.18,0,0,0,.22,1.75l-.06.26h21.3l-.06-.25-8.68,0,8.68,0c.5-2.24.11-4.51.21-6.76,0-.59-.48-.5-.85-.5l-10.21,0a11,11,0,0,0-1.81,0c-1.16.16-1.45-.29-1.43-1.42.08-3.75,0-7.51,0-11.26,0-.81-.22-1.09-1-1.09h-.12"/></clipPath><linearGradient id="linear-gradient-12" x1="-699.04" y1="211.48" x2="-698.07" y2="211.48" gradientTransform="matrix(120.81, 0, 0, -120.81, 84464.07, 25681.71)" xlink:href="#linear-gradient"/><clipPath id="clip-path-13"><path class="cls-1" d="M100.08,23.21c-3.59.06-7.18.05-10.77.06l-9.45,0c-.48,0-.85,0-.84.66,0,2,0,4.05,0,6.08,0,.5.26.69.73.68.8,0,1.6,0,2.4,0,2.39,0,4.78.1,7.17-.1a7.28,7.28,0,0,0,2.13.13l.71-.05c1-.06,1.31.31,1.29,1.32,0,3.75,0,7.5,0,11.25,0,.74.13,1.08,1,1.05,2.37-.07,4.75-.05,7.12-.06,4.14,0,8.28,0,12.42.06.68,0,.89-.21.88-.88,0-1.85,0-3.71,0-5.56,0-.66-.2-.89-.88-.89-4.14.05-8.28.05-12.42.07-.8-.13-.54-.76-.55-1.22,0-3.85,0-7.69,0-11.53,0-.65-.07-1-.85-1h0"/></clipPath><linearGradient id="linear-gradient-13" x1="-699.04" y1="211.46" x2="-698.07" y2="211.46" gradientTransform="matrix(120.81, 0, 0, -120.81, 84460.57, 25579.91)" xlink:href="#linear-gradient"/><clipPath id="clip-path-14"><path class="cls-1" d="M98.06,106.27c-1.48,0-3,0-4.42,0-.61,0-.7.31-.7.81,0,1.56.08,3.11,0,4.66-.07,1.15.24,1.52,1.47,1.51l4.12,0c2.3,0,4.59,0,6.89.14a2.06,2.06,0,0,1,1.27,1.65,6.92,6.92,0,0,1,.09,1.31c0,4.31,0,8.63-.05,12.94,0,.56-.12,1.11.8,1.1,3.28-.06,6.57-.05,9.85-.07s6.55,0,9.83.07c.68,0,.89-.22.87-.89,0-1.68,0-3.36,0-5,0-.69-.16-1-.91-1-2.83-.14-5.66-.34-8.5-.51a.31.31,0,0,0-.12,0,.32.32,0,0,0-.13,0h-.34l-.7,0c-.36,0-.73-.11-1.09-.16a5.7,5.7,0,0,0-1.09-.06c-1.13.08-1.33-.41-1.32-1.43.06-4.53,0-9.06,0-13.6,0-.59.15-1.26-.82-1.25s-1.83,0-2.74,0c-1.72,0-3.44,0-5.16.11-1.53-.1-3.06-.13-4.59-.13l-2.52,0"/></clipPath><linearGradient id="linear-gradient-14" x1="-699.04" y1="211.48" x2="-698.07" y2="211.48" gradientTransform="matrix(120.81, 0, 0, -120.81, 84463.59, 25667)" xlink:href="#linear-gradient"/><clipPath id="clip-path-15"><path class="cls-1" d="M50.36,35.48c-1.56,0-3.11,0-4.67.14-1.9-.16-3.81-.14-5.71-.12-1.16,0-2.32,0-3.48,0-.62,0-.7.33-.69.82,0,1.86,0,3.71,0,5.57,0,.63.23.8.83.83,3,.16,6,.47,9,.46.77.07,1.54.18,2.31.22,1.9.11,1.67-.22,1.68,1.81,0,4.44,0,8.87,0,13.31,0,.95.26,1.3,1.24,1.24,1.38-.09,2.76-.06,4.14-.08h8.31c2.24,0,4.48,0,6.72.07.71,0,.87-.29.86-.92,0-1.89,0-3.79,0-5.68,0-.64-.15-.92-.86-.91-2.24,0-4.48,0-6.72.06-1.6,0-3.2-.11-4.79,0-1.15.06-1.45-.28-1.43-1.43.07-4.7,0-9.4.05-14.11,0-.86-.19-1.3-1.13-1.2a1,1,0,0,1-.25,0,1.4,1.4,0,0,0-.76.07c-1.55-.1-3.09-.14-4.63-.14h0"/></clipPath><linearGradient id="linear-gradient-15" x1="-699.04" y1="211.46" x2="-698.07" y2="211.46" gradientTransform="matrix(120.81, 0, 0, -120.81, 84461.04, 25594.16)" xlink:href="#linear-gradient"/><clipPath id="clip-path-16"><path class="cls-1" d="M56.34,65.17a18.15,18.15,0,0,0-3.21-.12c-.56,0-1.12,0-1.68,0s-.9.27-.88.93c0,1.85,0,3.7,0,5.54,0,.64.16.94.86.92s1.64,0,2.45,0l2.45,0h7.53l1.06,0,.22.13c0,1.47,0,2.93,0,4.4s0,2.94,0,4.41c0,.66.09,1,.9,1,1.78,0,3.55,0,5.32,0,.68,0,.9-.21.89-.89q0-7.7,0-15.41c0-.62-.14-1-.84-1-.88,0-1.77,0-2.65,0a41.51,41.51,0,0,0-4.86.12c-1.25-.1-2.5-.15-3.74-.15s-2.53,0-3.79.15"/></clipPath><linearGradient id="linear-gradient-16" x1="-699.04" y1="211.47" x2="-698.07" y2="211.47" gradientTransform="matrix(120.81, 0, 0, -120.81, 84461.97, 25621.04)" xlink:href="#linear-gradient"/></defs><g id="Layer_2" data-name="Layer 2"><g id="Layer_1-2" data-name="Layer 1"><g class="cls-2"><rect class="cls-3" x="78.27" y="51.89" width="22.29" height="31.69" transform="translate(-2.36 3.23) rotate(-2.05)"/></g><g class="cls-4"><rect class="cls-5" x="20.58" y="49.73" width="23.12" height="36.87" transform="translate(-2.41 1.19) rotate(-2.05)"/></g><g class="cls-6"><rect class="cls-7" x="63.11" y="89.78" width="22.38" height="24.81" transform="translate(-3.6 2.72) rotate(-2.05)"/></g><g class="cls-8"><rect class="cls-9" x="33.31" y="93.3" width="22.32" height="35.84" transform="matrix(1, -0.04, 0.04, 1, -3.94, 1.66)"/></g><g class="cls-10"><rect class="cls-11" x="23.14" y="78.58" width="36.72" height="21.71" transform="translate(-3.17 1.54) rotate(-2.05)"/></g><g class="cls-12"><rect class="cls-13" x="64.52" y="25.21" width="21.82" height="36.17" transform="translate(-1.5 2.72) rotate(-2.05)"/></g><g class="cls-14"><rect class="cls-15" x="90.93" y="83.05" width="22.33" height="17.52" transform="matrix(1, -0.04, 0.04, 1, -3.21, 3.7)"/></g><g class="cls-16"><rect class="cls-17" x="120.6" y="79.61" width="22.51" height="36.9" transform="translate(-3.42 4.77) rotate(-2.05)"/></g><g class="cls-18"><rect class="cls-19" x="103.74" y="65.85" width="36.82" height="21.8" transform="translate(-2.66 4.41) rotate(-2.05)"/></g><g class="cls-20"><rect class="cls-21" x="107.84" y="36.83" width="22.33" height="35.78" transform="translate(-1.88 4.28) rotate(-2.05)"/></g><g class="cls-22"><rect class="cls-23" x="77.33" y="104.69" width="21.71" height="36.38" transform="translate(-4.33 3.23) rotate(-2.05)"/></g><g class="cls-24"><rect class="cls-25" x="48.37" y="121.32" width="36.56" height="22.54" transform="translate(-4.69 2.46) rotate(-2.05)"/></g><g class="cls-26"><rect class="cls-27" x="78.65" y="22.58" width="36.55" height="22.32" transform="translate(-1.14 3.48) rotate(-2.05)"/></g><g class="cls-28"><rect class="cls-29" x="92.43" y="105.61" width="36.06" height="25.36" transform="translate(-4.15 4.02) rotate(-2.05)"/></g><g class="cls-30"><rect class="cls-31" x="35.37" y="34.83" width="35.99" height="25.61" transform="translate(-1.67 1.93) rotate(-2.05)"/></g><g class="cls-32"><rect class="cls-33" x="50.25" y="64.62" width="22.28" height="18.13" transform="translate(-2.59 2.24) rotate(-2.05)"/></g><path class="cls-34" d="M168.14,41.57h4.91l8.35,17.15,8.36-17.15h4.9l-11,21.08V75.42h-4.42V62.65Z"/><path class="cls-34" d="M198.4,41.57h4.42V63c0,6.22,3.35,8.89,8.35,8.89s8.31-2.67,8.31-8.89V41.57h4.42V62.94c0,8.79-5.78,12.82-12.78,12.82s-12.72-4-12.72-12.82Z"/><path class="cls-34" d="M235.35,60V75.42h-4.42V41.57h4.42V57.26l14-15.69h5.59l-15.35,17,15.49,16.9h-5.78Z"/><path class="cls-34" d="M259.05,41.57h4.42V75.42h-4.42Z"/><path class="cls-34" d="M281.87,41.57H304.8v3.59h-9.23V75.42h-4.42V45.16h-9.28Z"/><path class="cls-34" d="M327.23,45.16H313.44V56.48h12.34v3.64H313.44V71.78h13.79v3.64H309V41.52h18.21Z"/><path class="cls-34" d="M347.43,41.13c7.34,0,13.16,3.69,15.69,10.25h-5.29C356,47.3,352.39,45,347.43,45c-7.09,0-12.38,5.15-12.38,13.45s5.29,13.41,12.38,13.41c5,0,8.55-2.29,10.4-6.32h5.29c-2.53,6.51-8.35,10.15-15.69,10.15-9.47,0-16.9-7.09-16.9-17.24S338,41.13,347.43,41.13Z"/><path class="cls-34" d="M390.22,60.08H373V75.42h-4.42V41.57H373V56.43h17.25V41.57h4.42V75.42h-4.42Z"/><path class="cls-34" d="M428.43,41.52v33.9H424L406.24,48.47v27h-4.42V41.52h4.42L424,68.43V41.52Z"/><path class="cls-34" d="M450.87,75.76c-9.52,0-17-7.14-17-17.29s7.48-17.29,17-17.29,17,7.14,17,17.29S460.44,75.76,450.87,75.76Zm0-3.83c7.14,0,12.48-5.2,12.48-13.46S458,45,450.87,45s-12.48,5.15-12.48,13.45S443.73,71.93,450.87,71.93Z"/><path class="cls-34" d="M477.62,41.57V71.83h11.85v3.59H473.2V41.57Z"/><path class="cls-34" d="M507,75.76c-9.52,0-17-7.14-17-17.29s7.48-17.29,17-17.29,17,7.14,17,17.29S516.52,75.76,507,75.76Zm0-3.83c7.14,0,12.48-5.2,12.48-13.46S514.1,45,507,45s-12.49,5.15-12.49,13.45S499.82,71.93,507,71.93Z"/><path class="cls-34" d="M560.18,51.38h-5.29c-1.85-3.93-5.54-6.22-10.3-6.22-7.14,0-12.48,5.15-12.48,13.31s5.34,13.26,12.48,13.26c6.65,0,11.22-4.27,11.9-11H543V57.16H561.2v3.4a16.42,16.42,0,0,1-16.61,15.15c-9.52,0-17-7.09-17-17.24s7.48-17.29,17-17.29C551.73,41.18,557.66,44.87,560.18,51.38Z"/><path class="cls-34" d="M561.34,41.57h4.91l8.35,17.15L583,41.57h4.91l-11,21.08V75.42h-4.42V62.65Z"/><path class="cls-34" d="M187.71,89.31v21.83h8.53v1.94H185.33V89.31Z"/><path class="cls-34" d="M207.49,113.35c-5.27,0-9.11-3.67-9.11-9.55s3.77-9.56,9.11-9.56a8.35,8.35,0,0,1,8.77,8.61,15.91,15.91,0,0,1-.07,1.87h-15.4c.21,4.35,3.23,6.63,6.7,6.63,3.16,0,5.3-1.67,6-4.15H216C215.14,110.7,212.15,113.35,207.49,113.35Zm-6.7-10.57h13.06c.1-4.32-3-6.5-6.46-6.5S201.06,98.46,200.79,102.78Z"/><path class="cls-34" d="M221.46,96.52h-2.58v-2h2.58V89.86h2.41v4.66H229v2h-5.1v11.53c0,2.27.78,3,2.93,3H229v2h-2.55c-3.23,0-5-1.33-5-5Z"/><path class="cls-34" d="M232.57,86.05h2.49l-.41,6.56H233Z"/><path class="cls-34" d="M245.63,113.35c-4.22,0-7.17-2.11-7.48-5.51h2.45c.2,2,2,3.51,5,3.51,2.66,0,4.15-1.43,4.15-3.2,0-4.59-11.15-1.9-11.15-8.87,0-2.76,2.62-5,6.53-5s6.59,2.11,6.8,5.68h-2.38c-.14-2.07-1.67-3.64-4.49-3.64-2.48,0-4.05,1.33-4.05,3,0,5,11,2.35,11.09,8.91C252.09,111.14,249.47,113.35,245.63,113.35Z"/><path class="cls-34" d="M274,113.35c-4.22,0-7.17-2.11-7.48-5.51H269c.2,2,2,3.51,5,3.51,2.66,0,4.15-1.43,4.15-3.2,0-4.59-11.15-1.9-11.15-8.87,0-2.76,2.62-5,6.53-5s6.59,2.11,6.8,5.68h-2.38c-.14-2.07-1.67-3.64-4.49-3.64-2.48,0-4,1.33-4,3,0,5,11,2.35,11.09,8.91C280.44,111.14,277.82,113.35,274,113.35Z"/><path class="cls-34" d="M301.41,113.08H299v-3.27a6.7,6.7,0,0,1-6.32,3.57c-4.22,0-7.55-2.58-7.55-8V94.52h2.35v10.57c0,4.11,2.24,6.22,5.64,6.22s5.88-2.17,5.88-6.7V94.52h2.38Z"/><path class="cls-34" d="M315.35,94.24c4.66,0,7.68,2.49,8.53,6.33h-2.55c-.61-2.65-2.85-4.29-6-4.29-3.64,0-6.6,2.49-6.6,7.52s3,7.55,6.6,7.55c3.13,0,5.34-1.6,6-4.32h2.55c-.85,3.7-3.87,6.32-8.53,6.32-5.24,0-9-3.67-9-9.55S310.11,94.24,315.35,94.24Z"/><path class="cls-34" d="M336.59,94.24c4.66,0,7.69,2.49,8.54,6.33h-2.55c-.62-2.65-2.86-4.29-6-4.29-3.64,0-6.59,2.49-6.59,7.52s2.95,7.55,6.59,7.55c3.13,0,5.34-1.6,6-4.32h2.55c-.85,3.7-3.88,6.32-8.54,6.32-5.23,0-9-3.67-9-9.55S331.36,94.24,336.59,94.24Z"/><path class="cls-34" d="M357.94,113.35c-5.27,0-9.11-3.67-9.11-9.55s3.77-9.56,9.11-9.56a8.35,8.35,0,0,1,8.77,8.61,15.91,15.91,0,0,1-.07,1.87h-15.4c.21,4.35,3.23,6.63,6.7,6.63,3.16,0,5.3-1.67,6-4.15h2.52C365.59,110.7,362.6,113.35,357.94,113.35Zm-6.7-10.57H364.3c.1-4.32-3-6.5-6.46-6.5S351.51,98.46,351.24,102.78Z"/><path class="cls-34" d="M379.73,113.35c-5.27,0-9.11-3.67-9.11-9.55s3.77-9.56,9.11-9.56a8.35,8.35,0,0,1,8.77,8.61,15.91,15.91,0,0,1-.07,1.87H373c.21,4.35,3.23,6.63,6.7,6.63,3.16,0,5.3-1.67,6-4.15h2.52C387.38,110.7,384.39,113.35,379.73,113.35ZM373,102.78h13.06c.1-4.32-3-6.5-6.46-6.5S373.3,98.46,373,102.78Z"/><path class="cls-34" d="M401.32,94.24a8.06,8.06,0,0,1,7.3,4.29V87.92H411v25.16h-2.38v-4.15a7.73,7.73,0,0,1-7.34,4.42c-5.1,0-8.87-3.77-8.87-9.59S396.18,94.24,401.32,94.24Zm.4,2.08c-3.91,0-6.9,2.72-6.9,7.44s3,7.52,6.9,7.52,6.9-2.86,6.9-7.48S405.53,96.32,401.72,96.32Z"/><path class="cls-34" d="M428.13,96.52h-2.58v-2h2.58V89.86h2.42v4.66h5.1v2h-5.1v11.53c0,2.27.78,3,2.92,3h2.18v2H433.1c-3.23,0-5-1.33-5-5Z"/><path class="cls-34" d="M447.34,113.35c-5.23,0-9.21-3.67-9.21-9.55s4.08-9.56,9.28-9.56,9.28,3.64,9.28,9.56S452.58,113.35,447.34,113.35Zm0-2.07c3.5,0,6.9-2.38,6.9-7.48s-3.33-7.48-6.87-7.48-6.83,2.38-6.83,7.48S443.81,111.28,447.34,111.28Z"/><path class="cls-34" d="M469.4,94.24a7.83,7.83,0,0,1,7.35,4.32v-4h2.37v19c0,5.21-3.56,8.64-8.66,8.64-4.8,0-8.13-2.45-8.88-6.32h2.35c.78,2.51,3.13,4.25,6.53,4.25s6.29-2.35,6.29-6.57V109a7.84,7.84,0,0,1-7.35,4.38c-5.1,0-8.87-3.77-8.87-9.59S464.3,94.24,469.4,94.24Zm.44,2.08c-3.91,0-6.9,2.72-6.9,7.44s3,7.52,6.9,7.52,6.91-2.86,6.91-7.48S473.65,96.32,469.84,96.32Z"/><path class="cls-34" d="M493.16,113.35c-5.27,0-9.11-3.67-9.11-9.55s3.77-9.56,9.11-9.56a8.35,8.35,0,0,1,8.77,8.61,18.55,18.55,0,0,1-.06,1.87h-15.4c.2,4.35,3.22,6.63,6.69,6.63,3.16,0,5.31-1.67,6-4.15h2.51C500.81,110.7,497.82,113.35,493.16,113.35Zm-6.69-10.57h13c.1-4.32-3-6.5-6.46-6.5S486.74,98.46,486.47,102.78Z"/><path class="cls-34" d="M507.13,96.52h-2.58v-2h2.58V89.86h2.42v4.66h5.1v2h-5.1v11.53c0,2.27.78,3,2.92,3h2.18v2H512.1c-3.23,0-5-1.33-5-5Z"/><path class="cls-34" d="M518.76,87.92h2.38v9.76a7,7,0,0,1,6.46-3.5c4.11,0,7.41,2.58,7.41,8v10.88h-2.35V102.47c0-4.11-2.24-6.22-5.64-6.22s-5.88,2.18-5.88,6.7v10.13h-2.38Z"/><path class="cls-34" d="M548.81,113.35c-5.27,0-9.11-3.67-9.11-9.55s3.77-9.56,9.11-9.56a8.35,8.35,0,0,1,8.77,8.61,15.91,15.91,0,0,1-.07,1.87h-15.4c.21,4.35,3.23,6.63,6.7,6.63,3.16,0,5.3-1.67,6-4.15h2.52C556.46,110.7,553.47,113.35,548.81,113.35Zm-6.7-10.57h13.06c.1-4.32-3-6.5-6.46-6.5S542.38,98.46,542.11,102.78Z"/><path class="cls-34" d="M564.89,113.08h-2.38V94.52h2.38v3.29c1-2.27,3.16-3.63,6.35-3.63v2.48h-.64c-3.1,0-5.71,1.39-5.71,6Z"/><rect class="cls-1" width="610" height="170"/></g></g></svg>