<?xml version="1.0" encoding="utf-8"?>
<!-- Generator: Adobe Illustrator 26.0.0, SVG Export Plug-In . SVG Version: 6.00 Build 0)  -->
<svg version="1.1" id="Layer_1" xmlns="http://www.w3.org/2000/svg" xmlns:xlink="http://www.w3.org/1999/xlink" x="0px" y="0px"
	 viewBox="0 0 610 170" style="enable-background:new 0 0 610 170;" xml:space="preserve">
<style type="text/css">
	.st0{clip-path:url(#SVGID_00000052077852087493841530000006432468320751048066_);}
	.st1{fill:url(#SVGID_00000127728198649039506820000010406733360879767716_);}
	.st2{clip-path:url(#SVGID_00000041989250909983666310000006560893504740801177_);}
	.st3{fill:url(#SVGID_00000014594029054595491030000010691433785604520091_);}
	.st4{clip-path:url(#SVGID_00000086670499196074102700000014353285361546822839_);}
	.st5{fill:url(#SVGID_00000005956751441646061520000001067210950118168245_);}
	.st6{clip-path:url(#SVGID_00000106121583010522733860000008507008522879489920_);}
	.st7{fill:url(#SVGID_00000113355598650376104360000015971895173307411382_);}
	.st8{clip-path:url(#SVGID_00000017503360768639603560000005427507603795833277_);}
	.st9{fill:url(#SVGID_00000179646524628867798610000003238976682736005030_);}
	.st10{clip-path:url(#SVGID_00000109005665541942720770000007306189434028506803_);}
	.st11{fill:url(#SVGID_00000169558952675574747150000002435371113205876398_);}
	.st12{clip-path:url(#SVGID_00000025427663072504124560000011664108670581431466_);}
	.st13{fill:url(#SVGID_00000121254740489305303810000017451531327004778368_);}
	.st14{clip-path:url(#SVGID_00000055692913509037737160000002965473753906392492_);}
	.st15{fill:url(#SVGID_00000137100787608405477700000010278429303590669745_);}
	.st16{clip-path:url(#SVGID_00000139267426774176944070000015814161074945924485_);}
	.st17{fill:url(#SVGID_00000034073446626945831280000018090561129699540392_);}
	.st18{clip-path:url(#SVGID_00000179626684901838663060000001682094277428228770_);}
	.st19{fill:url(#SVGID_00000049904800116800808710000010495671276491414158_);}
	.st20{clip-path:url(#SVGID_00000134946002406656876900000004863379669531739008_);}
	.st21{fill:url(#SVGID_00000128457536578528391610000002324075635165492628_);}
	.st22{clip-path:url(#SVGID_00000079477747358078376280000012994221076628730279_);}
	.st23{fill:url(#SVGID_00000138554147755352856440000001628091146640380068_);}
	.st24{clip-path:url(#SVGID_00000040566485435976923480000012890100156169260712_);}
	.st25{fill:url(#SVGID_00000120526685255477127390000010269359858809426330_);}
	.st26{clip-path:url(#SVGID_00000038396701931531352130000003863230473417886136_);}
	.st27{fill:url(#SVGID_00000182524683291997223300000008497951142147232190_);}
	.st28{clip-path:url(#SVGID_00000085951345814516719430000010652882017628525730_);}
	.st29{fill:url(#SVGID_00000134236698487078212080000003812956394748921271_);}
	.st30{clip-path:url(#SVGID_00000059305386575596900860000016099699877187013818_);}
	.st31{fill:url(#SVGID_00000024683622057267442030000010054043323836352684_);}
	.st32{fill:#FFFFFF;}
	.st33{fill:none;}
</style>
<g id="Layer_2_00000044876114106955369870000005485092606466431662_">
	<g id="Layer_1-2">
		<g>
			<defs>
				<path id="SVGID_1_" d="M92.8,53.5c0,3.9,0,7.8,0,11.7c0,0.9-0.2,1.2-1.2,1.2c-1.9-0.1-3.8,0-5.7,0c-2.1,0-4.1,0-6.2-0.1
					c-0.7,0-0.9,0.2-0.9,0.9c0,5,0,9.9,0,14.9c0,0.7,0.2,0.9,0.9,0.9c1.4-0.1,2.8,0,4.1,0.2c1.2,0.2,1.8-0.5,1.9-1.7
					c0-0.9,0-1.7,0-2.6c-0.1-1.4,0-2.8,0.1-4.1c0-0.2,0.1-0.4,0.1-0.6h6.6H99c0.7,0,1-0.2,1-0.9c0-6.6,0-13.2,0-19.8
					c0-0.7-0.1-1-0.9-1c-1.7,0-3.5,0.1-5.2,0h-0.1C93,52.2,92.8,52.6,92.8,53.5"/>
			</defs>
			<clipPath id="SVGID_00000044888205283456512470000003908777100443453574_">
				<use xlink:href="#SVGID_1_"  style="overflow:visible;"/>
			</clipPath>
			<g style="clip-path:url(#SVGID_00000044888205283456512470000003908777100443453574_);">
				
					<linearGradient id="SVGID_00000116920032228975740340000005824790455263557046_" gradientUnits="userSpaceOnUse" x1="-692.1974" y1="297.2019" x2="-691.2274" y2="297.2019" gradientTransform="matrix(120.7327 -4.3216 4.3216 120.7327 82297.2734 -38802.8203)">
					<stop  offset="0" style="stop-color:#52FC73"/>
					<stop  offset="0.16" style="stop-color:#46F187"/>
					<stop  offset="0.43" style="stop-color:#34DFA6"/>
					<stop  offset="0.45" style="stop-color:#31DCAB"/>
					<stop  offset="0.65" style="stop-color:#1DC9CD"/>
					<stop  offset="0.82" style="stop-color:#11BDE2"/>
					<stop  offset="0.92" style="stop-color:#0CB9EA"/>
					<stop  offset="1" style="stop-color:#0CB9EA"/>
				</linearGradient>
				<polygon style="fill:url(#SVGID_00000116920032228975740340000005824790455263557046_);" points="77.7,52.3 100,51.5 
					101.1,83.2 78.8,84 				"/>
			</g>
		</g>
		<g>
			<defs>
				<path id="SVGID_00000035510204910940701740000018389227329249114761_" d="M36.3,51.4c-0.2,3.8-0.5,7.7-0.6,11.5
					c0,0.2,0,0.4-0.1,0.6c0,0.1-0.1,0.3-0.2,0.4c-0.2,0.2-0.6,0.3-0.9,0.3c-3.1-0.2-6.3-0.1-9.4-0.1C24,64,23,64,22,64
					c-0.6,0-0.7,0.3-0.7,0.8c0,6.8,0,13.6,0,20.4c0,0.7,0.3,0.9,0.9,0.9c1.6,0,3.3-0.1,4.9,0c1.2,0.1,1.4-0.4,1.4-1.5
					c-0.1-3.9,0-7.8,0-11.6c0-0.9,0.2-1.2,1.2-1.2c1.6,0.1,3.3,0.1,4.9-0.1c1.7,0.1,3.4,0.2,5.1,0.1c0.8,0,1.7,0,2.5,0
					s0.9-0.4,0.9-1c0-6.6,0-13.1,0-19.7c0-0.7-0.2-1-1-1c-1.5,0-3,0.1-4.5,0h-0.2C36.6,50.2,36.4,50.5,36.3,51.4"/>
			</defs>
			<clipPath id="SVGID_00000005242214945996030190000001250310671814197638_">
				<use xlink:href="#SVGID_00000035510204910940701740000018389227329249114761_"  style="overflow:visible;"/>
			</clipPath>
			<g style="clip-path:url(#SVGID_00000005242214945996030190000001250310671814197638_);">
				
					<linearGradient id="SVGID_00000023244117197438154430000011927441965272242362_" gradientUnits="userSpaceOnUse" x1="-692.1974" y1="297.2017" x2="-691.2274" y2="297.2017" gradientTransform="matrix(120.7327 -4.3216 4.3216 120.7327 82297.2188 -38804.4102)">
					<stop  offset="0" style="stop-color:#52FC73"/>
					<stop  offset="0.16" style="stop-color:#46F187"/>
					<stop  offset="0.43" style="stop-color:#34DFA6"/>
					<stop  offset="0.45" style="stop-color:#31DCAB"/>
					<stop  offset="0.65" style="stop-color:#1DC9CD"/>
					<stop  offset="0.82" style="stop-color:#11BDE2"/>
					<stop  offset="0.92" style="stop-color:#0CB9EA"/>
					<stop  offset="1" style="stop-color:#0CB9EA"/>
				</linearGradient>
				<polygon style="fill:url(#SVGID_00000023244117197438154430000011927441965272242362_);" points="19.9,50.2 43,49.3 44.4,86.2 
					21.3,87 				"/>
			</g>
		</g>
		<g>
			<defs>
				<path id="SVGID_00000090999951233721987890000014785597455301072280_" d="M69.1,90.2c-1.6,0-3.2,0-4.8,0c-0.8,0-0.7,0.5-0.7,1
					c0,7.3,0,14.7,0,22c0,0.8,0.3,1,1.1,1c1.5,0,3-0.1,4.5,0c1.1,0.1,1.4-0.4,1.4-1.4c0.2-4.4,0.4-8.8,0.6-13.2
					c0.1-2.2,0.1-2.2,2.3-2.3c0.2,0,0.3-0.1,0.5-0.1c2.3,0.2,4.6,0.1,6.8,0.1c1.1,0,2.3,0,3.4,0c0.6,0,0.9-0.2,0.9-0.8
					c0-1.8,0-3.5,0-5.3c0-0.6-0.2-0.9-0.8-0.9c-1.3,0-2.6,0-3.8,0c-2.1,0-4.3,0-6.4,0.1c-1.3-0.1-2.6-0.1-3.9-0.1L69.1,90.2"/>
			</defs>
			<clipPath id="SVGID_00000011741451724207715140000007621144632645519248_">
				<use xlink:href="#SVGID_00000090999951233721987890000014785597455301072280_"  style="overflow:visible;"/>
			</clipPath>
			<g style="clip-path:url(#SVGID_00000011741451724207715140000007621144632645519248_);">
				
					<linearGradient id="SVGID_00000152971009245979373180000012958191797255190166_" gradientUnits="userSpaceOnUse" x1="-692.1974" y1="297.1955" x2="-691.2274" y2="297.1955" gradientTransform="matrix(120.7327 -4.3216 4.3216 120.7327 82298.5156 -38768.1758)">
					<stop  offset="0" style="stop-color:#52FC73"/>
					<stop  offset="0.16" style="stop-color:#46F187"/>
					<stop  offset="0.43" style="stop-color:#34DFA6"/>
					<stop  offset="0.45" style="stop-color:#31DCAB"/>
					<stop  offset="0.65" style="stop-color:#1DC9CD"/>
					<stop  offset="0.82" style="stop-color:#11BDE2"/>
					<stop  offset="0.92" style="stop-color:#0CB9EA"/>
					<stop  offset="1" style="stop-color:#0CB9EA"/>
				</linearGradient>
				<polygon style="fill:url(#SVGID_00000152971009245979373180000012958191797255190166_);" points="62.7,90.2 85,89.4 85.9,114.2 
					63.6,115 				"/>
			</g>
		</g>
		<g>
			<defs>
				<path id="SVGID_00000150093918137677980240000006736092833731870905_" d="M47.8,95c0,3.1-0.1,6.2-0.1,9.3c0,2.9-0.3,3.2-3.1,3.7
					c-3.2-0.3-6.4-0.6-9.7-0.9c-0.8-0.1-1,0.1-1,0.9c0,6.6,0,13.2,0,19.8c0,0.9,0.3,1,1.1,1c1.5,0,3.1,0,4.7,0
					c0.9,0,1.1-0.3,1.1-1.1c0.1-3.4,0.3-6.7,0.5-10.1c0.2-2.6,0.2-2.6,2.7-2.6c0.2,0,0.4,0,0.6,0c3.2,0,6.3,0,9.5,0
					c0.7,0,0.9-0.2,0.9-0.9c0-6.5,0-13,0-19.5c0-0.7-0.2-0.9-0.9-0.9c-1.7,0-3.3,0.1-4.9,0H49C48.1,93.7,47.8,94.2,47.8,95"/>
			</defs>
			<clipPath id="SVGID_00000018943048886815472810000017864999215832358059_">
				<use xlink:href="#SVGID_00000150093918137677980240000006736092833731870905_"  style="overflow:visible;"/>
			</clipPath>
			<g style="clip-path:url(#SVGID_00000018943048886815472810000017864999215832358059_);">
				
					<linearGradient id="SVGID_00000148636805620828612060000001982208717079393682_" gradientUnits="userSpaceOnUse" x1="-692.2089" y1="297.1884" x2="-691.239" y2="297.1884" gradientTransform="matrix(120.81 -4.8324 4.8324 120.81 82202.4062 -39135.9766)">
					<stop  offset="0" style="stop-color:#52FC73"/>
					<stop  offset="0.16" style="stop-color:#46F187"/>
					<stop  offset="0.43" style="stop-color:#34DFA6"/>
					<stop  offset="0.45" style="stop-color:#31DCAB"/>
					<stop  offset="0.65" style="stop-color:#1DC9CD"/>
					<stop  offset="0.82" style="stop-color:#11BDE2"/>
					<stop  offset="0.92" style="stop-color:#0CB9EA"/>
					<stop  offset="1" style="stop-color:#0CB9EA"/>
				</linearGradient>
				<polygon style="fill:url(#SVGID_00000148636805620828612060000001982208717079393682_);" points="33.1,93.6 55.4,92.7 
					56.9,128.6 34.5,129.5 				"/>
			</g>
		</g>
		<g>
			<defs>
				<path id="SVGID_00000128443621896837061970000004947512079946106519_" d="M35.8,80.3c-0.2,3-0.5,6-0.7,9
					c-0.2,2.7-0.2,2.7-2.9,2.9c-2.6,0-5.2,0-7.8-0.1c-0.7,0-0.9,0.2-0.9,0.9c0,1.9,0,3.7,0,5.6c0,0.6,0.1,0.9,0.8,0.9c1,0,2,0,3,0
					c1.6,0,3.3,0,4.9-0.1c1.8,0.1,3.6,0.2,5.4,0.1c1.1,0,2.2,0,3.2,0s1.2-0.2,1.3-1.2c0.1-3.6,0.4-7.2,0.6-10.8c0-0.5,0-1,0.6-1.1
					c3.1,0.2,6.2,0.2,9.4,0c1.4,0.1,2.8,0.2,4.2,0.1h1.8c0.6,0,0.9-0.2,0.9-0.9c0-1.8,0-3.7,0-5.5c0-0.6-0.2-0.9-0.9-0.9
					c-1,0-2,0-3,0.1h-3h-9.3c-2.2,0-4.3,0-6.5-0.1h-0.1C36,79.2,35.8,79.5,35.8,80.3"/>
			</defs>
			<clipPath id="SVGID_00000163042773945965628170000010858794314169187497_">
				<use xlink:href="#SVGID_00000128443621896837061970000004947512079946106519_"  style="overflow:visible;"/>
			</clipPath>
			<g style="clip-path:url(#SVGID_00000163042773945965628170000010858794314169187497_);">
				
					<linearGradient id="SVGID_00000018207973679391882470000010707289977811380380_" gradientUnits="userSpaceOnUse" x1="-692.1974" y1="297.1973" x2="-691.2274" y2="297.1973" gradientTransform="matrix(120.7327 -4.3216 4.3216 120.7327 82298.0078 -38782.3008)">
					<stop  offset="0" style="stop-color:#52FC73"/>
					<stop  offset="0.16" style="stop-color:#46F187"/>
					<stop  offset="0.43" style="stop-color:#34DFA6"/>
					<stop  offset="0.45" style="stop-color:#31DCAB"/>
					<stop  offset="0.65" style="stop-color:#1DC9CD"/>
					<stop  offset="0.82" style="stop-color:#11BDE2"/>
					<stop  offset="0.92" style="stop-color:#0CB9EA"/>
					<stop  offset="1" style="stop-color:#0CB9EA"/>
				</linearGradient>
				<polygon style="fill:url(#SVGID_00000018207973679391882470000010707289977811380380_);" points="22.8,79.2 59.5,77.9 
					60.2,99.6 23.5,100.9 				"/>
			</g>
		</g>
		<g>
			<defs>
				<path id="SVGID_00000023253852617999128270000017274177364147630728_" d="M71.5,25.6c-1.8,0.1-3.6,0-5.4,0
					c-0.7,0-0.9,0.2-0.9,0.9c0,6.4,0,12.8,0,19.3c0,0.6,0.2,0.8,0.8,0.8c3,0,6.1,0,9.1-0.1c0.6,0,1.2,0,1.8,0
					c1.2-0.2,1.4,0.3,1.4,1.4c-0.1,4,0,7.9,0,11.9c0,0.8,0.2,1.1,1.1,1.1c1.7,0,3.5-0.1,5.2,0c0.9,0,1.2-0.2,1.2-1.2
					c0-6.4,0-12.9,0-19.3c0-0.9-0.4-1.1-1.1-1.1L75,38.9c-0.3-0.1-0.7-0.1-1-0.1c-1.3,0.2-1.6-0.4-1.6-1.7c0.1-3.5,0-7,0-10.5
					C72.4,26,72.3,25.6,71.5,25.6L71.5,25.6"/>
			</defs>
			<clipPath id="SVGID_00000090274409345456634890000008916382097073452174_">
				<use xlink:href="#SVGID_00000023253852617999128270000017274177364147630728_"  style="overflow:visible;"/>
			</clipPath>
			<g style="clip-path:url(#SVGID_00000090274409345456634890000008916382097073452174_);">
				
					<linearGradient id="SVGID_00000145771966077890038740000013267812817892173698_" gradientUnits="userSpaceOnUse" x1="-692.1974" y1="297.2077" x2="-691.2274" y2="297.2077" gradientTransform="matrix(120.7327 -4.3216 4.3216 120.7327 82296.3594 -38828.4219)">
					<stop  offset="0" style="stop-color:#52FC73"/>
					<stop  offset="0.16" style="stop-color:#46F187"/>
					<stop  offset="0.43" style="stop-color:#34DFA6"/>
					<stop  offset="0.45" style="stop-color:#31DCAB"/>
					<stop  offset="0.65" style="stop-color:#1DC9CD"/>
					<stop  offset="0.82" style="stop-color:#11BDE2"/>
					<stop  offset="0.92" style="stop-color:#0CB9EA"/>
					<stop  offset="1" style="stop-color:#0CB9EA"/>
				</linearGradient>
				<polygon style="fill:url(#SVGID_00000145771966077890038740000013267812817892173698_);" points="63.9,25.6 85.7,24.8 87,61 
					65.2,61.8 				"/>
			</g>
		</g>
		<g>
			<defs>
				<path id="SVGID_00000140695127457035878080000007415010246689871021_" d="M97.5,83.4c-1.8,0.2-3.7,0.3-5.5,0.4
					c-0.5,0-0.8,0.2-0.8,0.8c0,4.9,0,9.8,0,14.8c0,0.6,0.2,0.8,0.8,0.8h6.4h6.4h3.6h3.6c0.6,0,0.8-0.2,0.8-0.8c0-1.8,0-3.7,0-5.6
					c0-0.5-0.1-0.8-0.7-0.8h-1.8c-1.8-0.1-3.7,0-5.5,0.1c-1.5-0.2-3.1-0.2-4.6-0.1h-0.7c-0.9,0-1.2-0.3-1.2-1.2c0.1-2.5,0-5,0-7.5
					c0-0.6-0.1-1-0.7-1L97.5,83.4"/>
			</defs>
			<clipPath id="SVGID_00000050638939448965999060000017208162171073073033_">
				<use xlink:href="#SVGID_00000140695127457035878080000007415010246689871021_"  style="overflow:visible;"/>
			</clipPath>
			<g style="clip-path:url(#SVGID_00000050638939448965999060000017208162171073073033_);">
				
					<linearGradient id="SVGID_00000074437404029901486950000002879146699259744392_" gradientUnits="userSpaceOnUse" x1="-692.2089" y1="297.1915" x2="-691.239" y2="297.1915" gradientTransform="matrix(120.81 -4.8324 4.8324 120.81 82201.6953 -39153.6875)">
					<stop  offset="0" style="stop-color:#52FC73"/>
					<stop  offset="0.16" style="stop-color:#46F187"/>
					<stop  offset="0.43" style="stop-color:#34DFA6"/>
					<stop  offset="0.45" style="stop-color:#31DCAB"/>
					<stop  offset="0.65" style="stop-color:#1DC9CD"/>
					<stop  offset="0.82" style="stop-color:#11BDE2"/>
					<stop  offset="0.92" style="stop-color:#0CB9EA"/>
					<stop  offset="1" style="stop-color:#0CB9EA"/>
				</linearGradient>
				<polygon style="fill:url(#SVGID_00000074437404029901486950000002879146699259744392_);" points="91,83.1 113.4,82.2 
					114.1,99.7 91.7,100.6 				"/>
			</g>
		</g>
		<g>
			<defs>
				<path id="SVGID_00000141428597442755379070000016471648680975050384_" d="M134.9,83.5c0,2.7,0.1,5.4,0.1,8.2
					c0.1,0.9,0.1,1.8-0.2,2.7c-4.2,0-8.4,0-12.6,0c-0.6,0-0.9,0.1-0.9,0.8c0,6.6,0,13.2,0,19.8c0,0.6,0.2,0.8,0.8,0.8
					c1.8,0,3.5,0.1,5.3,0.3c1,0.1,1.3-0.2,1.2-1.2c-0.1-4.1,0-8.2,0-12.3c0-0.8,0.1-1,1-1c1.7,0.2,3.4,0.2,5.2,0.2
					c2.2,0.2,4.4,0.3,6.6,0.4c0.9,0.1,1.1-0.3,1.1-1.2c0-6.6,0-13.2,0-19.8c0-0.8-0.1-1.3-1.1-1.1c-0.9,0.1-1.7,0.1-2.6-0.1
					c-0.3,0-0.7-0.1-1-0.1C135.8,80,134.8,81.1,134.9,83.5"/>
			</defs>
			<clipPath id="SVGID_00000166646026120013290520000014823028596749170866_">
				<use xlink:href="#SVGID_00000141428597442755379070000016471648680975050384_"  style="overflow:visible;"/>
			</clipPath>
			<g style="clip-path:url(#SVGID_00000166646026120013290520000014823028596749170866_);">
				
					<linearGradient id="SVGID_00000172410687500967309150000017968508537345636531_" gradientUnits="userSpaceOnUse" x1="-692.1974" y1="297.1933" x2="-691.2274" y2="297.1933" gradientTransform="matrix(120.7327 -4.3216 4.3216 120.7327 82298.4453 -38769.9805)">
					<stop  offset="0" style="stop-color:#52FC73"/>
					<stop  offset="0.16" style="stop-color:#46F187"/>
					<stop  offset="0.43" style="stop-color:#34DFA6"/>
					<stop  offset="0.45" style="stop-color:#31DCAB"/>
					<stop  offset="0.65" style="stop-color:#1DC9CD"/>
					<stop  offset="0.82" style="stop-color:#11BDE2"/>
					<stop  offset="0.92" style="stop-color:#0CB9EA"/>
					<stop  offset="1" style="stop-color:#0CB9EA"/>
				</linearGradient>
				<polygon style="fill:url(#SVGID_00000172410687500967309150000017968508537345636531_);" points="120,80 142.4,79.2 
					143.8,116.1 121.3,116.9 				"/>
			</g>
		</g>
		<g>
			<defs>
				<path id="SVGID_00000176010969453486221980000007758963655311127425_" d="M121.5,67.6c0,3.6,0,7.2,0,10.8c0,0.4,0.2,1-0.2,1.3
					c-0.1,0-0.2-0.1-0.4-0.1c-5.3,0-10.6,0-15.9,0c-0.7,0-0.9,0.3-0.9,0.9c0,1.8,0,3.7,0,5.6c0,0.6,0.1,0.9,0.8,0.9h8.2h8.2h1.7
					c1.7,0,3.3,0,5,0.1c0.9,0,1.2-0.3,1.1-1.2c-0.1-3.6,0-7.1,0-10.7c0-0.8,0.1-1.3,1-1.2c3.1,0,6.1,0,9.2,0.1c0.8,0,0.9-0.3,0.9-1
					c0-1.8,0-3.7,0-5.6c0-0.7-0.1-1-0.9-1h-4.6h-4.6c-2.5,0-5,0-7.5-0.1h-0.1C121.7,66.5,121.5,66.8,121.5,67.6"/>
			</defs>
			<clipPath id="SVGID_00000158025726798722186200000005131318410141956283_">
				<use xlink:href="#SVGID_00000176010969453486221980000007758963655311127425_"  style="overflow:visible;"/>
			</clipPath>
			<g style="clip-path:url(#SVGID_00000158025726798722186200000005131318410141956283_);">
				
					<linearGradient id="SVGID_00000003827091758722269200000017168282451817521324_" gradientUnits="userSpaceOnUse" x1="-692.1974" y1="297.1982" x2="-691.2274" y2="297.1982" gradientTransform="matrix(120.7327 -4.3216 4.3216 120.7327 82297.6562 -38792.1992)">
					<stop  offset="0" style="stop-color:#52FC73"/>
					<stop  offset="0.16" style="stop-color:#46F187"/>
					<stop  offset="0.43" style="stop-color:#34DFA6"/>
					<stop  offset="0.45" style="stop-color:#31DCAB"/>
					<stop  offset="0.65" style="stop-color:#1DC9CD"/>
					<stop  offset="0.82" style="stop-color:#11BDE2"/>
					<stop  offset="0.92" style="stop-color:#0CB9EA"/>
					<stop  offset="1" style="stop-color:#0CB9EA"/>
				</linearGradient>
				<polygon style="fill:url(#SVGID_00000003827091758722269200000017168282451817521324_);" points="103.4,66.5 140.2,65.2 
					140.9,87 104.1,88.3 				"/>
			</g>
		</g>
		<g>
			<defs>
				<path id="SVGID_00000139254700336189327250000009858947453012361402_" d="M122.1,38.5c0.1,3.9,0,7.8,0,11.8c0,1-0.3,1.3-1.3,1.3
					c-1.3,0-2.7,0-4,0.1c-1.6-0.1-3.2-0.2-4.8-0.1c-0.9,0-1.9,0-2.8,0c-0.8,0-0.7,0.5-0.7,1c0,6.2,0,12.4,0,18.7c0,0.9,0.3,1,1.1,1
					c1.7,0,3.3-0.1,4.9,0c1,0,1.2-0.3,1.2-1.2c-0.1-3.7,0-7.3,0-11c0-0.9,0.2-1.3,1.1-1.2c3.9,0,7.9,0,11.8,0.1
					c0.7,0,0.9-0.2,0.9-0.9c0-6.6,0-13.2,0-19.8c0-0.8-0.3-0.9-1-0.9c-1.7,0-3.4,0.1-5.1,0h-0.2C122.4,37.2,122.1,37.5,122.1,38.5"
					/>
			</defs>
			<clipPath id="SVGID_00000123411255660231935760000017849944316492590730_">
				<use xlink:href="#SVGID_00000139254700336189327250000009858947453012361402_"  style="overflow:visible;"/>
			</clipPath>
			<g style="clip-path:url(#SVGID_00000123411255660231935760000017849944316492590730_);">
				
					<linearGradient id="SVGID_00000148639353036688155570000001173630812791874449_" gradientUnits="userSpaceOnUse" x1="-692.1974" y1="297.2044" x2="-691.2274" y2="297.2044" gradientTransform="matrix(120.7327 -4.3216 4.3216 120.7327 82296.8281 -38815.0664)">
					<stop  offset="0" style="stop-color:#52FC73"/>
					<stop  offset="0.16" style="stop-color:#46F187"/>
					<stop  offset="0.43" style="stop-color:#34DFA6"/>
					<stop  offset="0.45" style="stop-color:#31DCAB"/>
					<stop  offset="0.65" style="stop-color:#1DC9CD"/>
					<stop  offset="0.82" style="stop-color:#11BDE2"/>
					<stop  offset="0.92" style="stop-color:#0CB9EA"/>
					<stop  offset="1" style="stop-color:#0CB9EA"/>
				</linearGradient>
				<polygon style="fill:url(#SVGID_00000148639353036688155570000001173630812791874449_);" points="107.2,37.2 129.5,36.4 
					130.8,72.2 108.5,73 				"/>
			</g>
		</g>
		<g>
			<defs>
				<path id="SVGID_00000163775722731238006900000009042727431350871982_" d="M84.1,105.1c-1.6,0.1-3.3,0.1-4.9,0
					c-0.9,0-1.2,0.3-1.2,1.2c0,6.6,0,13.1,0,19.7c0,0.9,0.3,1.2,1.2,1.2h4.7c1.9,0,3.8,0,5.7,0c1.1,0,1.4,0.2,1.4,1.3
					c-0.1,3.7,0,7.4,0,11.1c0,0.4-0.4,1,0.5,1.1h1.7c1.3,0,2.7,0,4,0.1c1,0.1,1.3-0.2,1.3-1.3c-0.1-4.4,0-8.9,0-13.3
					c0-2.2-0.1-4.3-0.1-6.4v-0.1h-0.1c-2.3-0.1-4.5-0.1-6.8,0h-1.3c-1.3,0-2.5-0.1-3.8,0c-1,0-1.2-0.2-1.2-1.2c0.1-4,0-8,0-12
					c0-0.8-0.2-1.1-1-1.1H84"/>
			</defs>
			<clipPath id="SVGID_00000129920138840399954150000002055180539186158526_">
				<use xlink:href="#SVGID_00000163775722731238006900000009042727431350871982_"  style="overflow:visible;"/>
			</clipPath>
			<g style="clip-path:url(#SVGID_00000129920138840399954150000002055180539186158526_);">
				
					<linearGradient id="SVGID_00000044886529287660819970000003242349523542633345_" gradientUnits="userSpaceOnUse" x1="-692.1974" y1="297.1878" x2="-691.2274" y2="297.1878" gradientTransform="matrix(120.7327 -4.3216 4.3216 120.7327 82299.3047 -38746.0742)">
					<stop  offset="0" style="stop-color:#52FC73"/>
					<stop  offset="0.16" style="stop-color:#46F187"/>
					<stop  offset="0.43" style="stop-color:#34DFA6"/>
					<stop  offset="0.45" style="stop-color:#31DCAB"/>
					<stop  offset="0.65" style="stop-color:#1DC9CD"/>
					<stop  offset="0.82" style="stop-color:#11BDE2"/>
					<stop  offset="0.92" style="stop-color:#0CB9EA"/>
					<stop  offset="1" style="stop-color:#0CB9EA"/>
				</linearGradient>
				<polygon style="fill:url(#SVGID_00000044886529287660819970000003242349523542633345_);" points="76.7,105.1 98.4,104.3 
					99.7,140.7 78,141.4 				"/>
			</g>
		</g>
		<g>
			<defs>
				<path id="SVGID_00000148653635932999831720000009527713463906296738_" d="M68.9,122c-2,0.1-4.1,0.1-6.1,0.1H55
					c-1.8,0-3.6,0-5.4,0c-0.6,0-0.9,0.1-0.8,0.8c0,1.9,0,3.9,0,5.8c0,0.4,0.1,0.8,0.6,0.8c1.9,0.1,3.8,0.1,5.7,0
					c2.5,0.2,5,0.1,7.5,0.1c0,3.9,0,7.9,0.1,11.9c-0.1,0.6,0,1.2,0.2,1.8l-0.1,0.3h21.3l-0.1-0.2h-8.7H84c0.5-2.2,0.1-4.5,0.2-6.8
					c0-0.6-0.5-0.5-0.8-0.5H73.2c-0.6,0-1.2,0-1.8,0c-1.2,0.2-1.4-0.3-1.4-1.4c0.1-3.8,0-7.5,0-11.3C69.9,122.4,69.7,122.1,68.9,122
					l-0.1,0.1"/>
			</defs>
			<clipPath id="SVGID_00000085937144033399551800000014091591930234817982_">
				<use xlink:href="#SVGID_00000148653635932999831720000009527713463906296738_"  style="overflow:visible;"/>
			</clipPath>
			<g style="clip-path:url(#SVGID_00000085937144033399551800000014091591930234817982_);">
				
					<linearGradient id="SVGID_00000176760541739332922710000005473588442483710611_" gradientUnits="userSpaceOnUse" x1="-692.1974" y1="297.1854" x2="-691.2274" y2="297.1854" gradientTransform="matrix(120.7327 -4.3216 4.3216 120.7327 82299.6328 -38736.8633)">
					<stop  offset="0" style="stop-color:#52FC73"/>
					<stop  offset="0.16" style="stop-color:#46F187"/>
					<stop  offset="0.43" style="stop-color:#34DFA6"/>
					<stop  offset="0.45" style="stop-color:#31DCAB"/>
					<stop  offset="0.65" style="stop-color:#1DC9CD"/>
					<stop  offset="0.82" style="stop-color:#11BDE2"/>
					<stop  offset="0.92" style="stop-color:#0CB9EA"/>
					<stop  offset="1" style="stop-color:#0CB9EA"/>
				</linearGradient>
				<polygon style="fill:url(#SVGID_00000176760541739332922710000005473588442483710611_);" points="48,122 84.5,120.7 85.3,143.2 
					48.8,144.5 				"/>
			</g>
		</g>
		<g>
			<defs>
				<path id="SVGID_00000097500252648223868420000000168936478036289721_" d="M100.1,23.2c-3.6,0.1-7.2,0-10.8,0.1h-9.4
					c-0.5,0-0.8,0-0.8,0.7c0,2,0,4.1,0,6.1c0,0.5,0.3,0.7,0.7,0.7c0.8,0,1.6,0,2.4,0c2.4,0,4.8,0.1,7.2-0.1c0.7,0.1,1.4,0.2,2.1,0.1
					l0.7,0c1-0.1,1.3,0.3,1.3,1.3c0,3.8,0,7.5,0,11.2c0,0.7,0.1,1.1,1,1c2.4-0.1,4.8,0,7.1-0.1c4.1,0,8.3,0,12.4,0.1
					c0.7,0,0.9-0.2,0.9-0.9c0-1.8,0-3.7,0-5.6c0-0.7-0.2-0.9-0.9-0.9c-4.1,0-8.3,0-12.4,0.1c-0.8-0.1-0.5-0.8-0.6-1.2
					c0-3.9,0-7.7,0-11.5C101,23.6,101,23.3,100.1,23.2L100.1,23.2"/>
			</defs>
			<clipPath id="SVGID_00000181767098167316236810000007968219393237192352_">
				<use xlink:href="#SVGID_00000097500252648223868420000000168936478036289721_"  style="overflow:visible;"/>
			</clipPath>
			<g style="clip-path:url(#SVGID_00000181767098167316236810000007968219393237192352_);">
				
					<linearGradient id="SVGID_00000065068272610773612820000009668222961488180637_" gradientUnits="userSpaceOnUse" x1="-692.1974" y1="297.2098" x2="-691.2274" y2="297.2098" gradientTransform="matrix(120.7327 -4.3216 4.3216 120.7327 82296.0391 -38837.4531)">
					<stop  offset="0" style="stop-color:#52FC73"/>
					<stop  offset="0.16" style="stop-color:#46F187"/>
					<stop  offset="0.43" style="stop-color:#34DFA6"/>
					<stop  offset="0.45" style="stop-color:#31DCAB"/>
					<stop  offset="0.65" style="stop-color:#1DC9CD"/>
					<stop  offset="0.82" style="stop-color:#11BDE2"/>
					<stop  offset="0.92" style="stop-color:#0CB9EA"/>
					<stop  offset="1" style="stop-color:#0CB9EA"/>
				</linearGradient>
				<polygon style="fill:url(#SVGID_00000065068272610773612820000009668222961488180637_);" points="78.3,23.2 114.8,21.9 
					115.6,44.2 79.1,45.5 				"/>
			</g>
		</g>
		<g>
			<defs>
				<path id="SVGID_00000142887148402935035110000012707663275512172709_" d="M98.1,106.3c-1.5,0-3,0-4.4,0c-0.6,0-0.7,0.3-0.7,0.8
					c0,1.6,0.1,3.1,0,4.7c-0.1,1.2,0.2,1.5,1.5,1.5h4.1c2.3,0,4.6,0,6.9,0.1c0.7,0.3,1.2,0.9,1.3,1.7c0.1,0.4,0.1,0.9,0.1,1.3
					c0,4.3,0,8.6-0.1,12.9c0,0.6-0.1,1.1,0.8,1.1c3.3-0.1,6.6-0.1,9.8-0.1s6.6,0,9.8,0.1c0.7,0,0.9-0.2,0.9-0.9c0-1.7,0-3.4,0-5
					c0-0.7-0.2-1-0.9-1c-2.8-0.1-5.7-0.3-8.5-0.5c0,0-0.1,0-0.1,0c0,0-0.1,0-0.1,0h-0.3h-0.7c-0.4,0-0.7-0.1-1.1-0.2
					c-0.4-0.1-0.7-0.1-1.1-0.1c-1.1,0.1-1.3-0.4-1.3-1.4c0.1-4.5,0-9.1,0-13.6c0-0.6,0.2-1.3-0.8-1.2s-1.8,0-2.7,0
					c-1.7,0-3.4,0-5.2,0.1c-1.5-0.1-3.1-0.1-4.6-0.1h-2.5"/>
			</defs>
			<clipPath id="SVGID_00000021109631838721578910000002381176631787779767_">
				<use xlink:href="#SVGID_00000142887148402935035110000012707663275512172709_"  style="overflow:visible;"/>
			</clipPath>
			<g style="clip-path:url(#SVGID_00000021109631838721578910000002381176631787779767_);">
				
					<linearGradient id="SVGID_00000165218302910036878290000007326355257798129084_" gradientUnits="userSpaceOnUse" x1="-692.1974" y1="297.1888" x2="-691.2274" y2="297.1888" gradientTransform="matrix(120.7327 -4.3216 4.3216 120.7327 82299.1641 -38749.9883)">
					<stop  offset="0" style="stop-color:#52FC73"/>
					<stop  offset="0.16" style="stop-color:#46F187"/>
					<stop  offset="0.43" style="stop-color:#34DFA6"/>
					<stop  offset="0.45" style="stop-color:#31DCAB"/>
					<stop  offset="0.65" style="stop-color:#1DC9CD"/>
					<stop  offset="0.82" style="stop-color:#11BDE2"/>
					<stop  offset="0.92" style="stop-color:#0CB9EA"/>
					<stop  offset="1" style="stop-color:#0CB9EA"/>
				</linearGradient>
				<polygon style="fill:url(#SVGID_00000165218302910036878290000007326355257798129084_);" points="92,106.3 128,105 128.9,130.3 
					92.9,131.6 				"/>
			</g>
		</g>
		<g>
			<defs>
				<path id="SVGID_00000011743716434078896630000002580306608516578444_" d="M50.4,35.5c-1.6,0-3.1,0-4.7,0.1
					c-1.9-0.2-3.8-0.1-5.7-0.1c-1.2,0-2.3,0-3.5,0c-0.6,0-0.7,0.3-0.7,0.8c0,1.9,0,3.7,0,5.6c0,0.6,0.2,0.8,0.8,0.8
					c3,0.2,6,0.5,9,0.5c0.8,0.1,1.5,0.2,2.3,0.2c1.9,0.1,1.7-0.2,1.7,1.8c0,4.4,0,8.9,0,13.3c0,1,0.3,1.3,1.2,1.2
					c1.4-0.1,2.8-0.1,4.1-0.1h8.3c2.2,0,4.5,0,6.7,0.1c0.7,0,0.9-0.3,0.9-0.9c0-1.9,0-3.8,0-5.7c0-0.6-0.2-0.9-0.9-0.9
					c-2.2,0-4.5,0-6.7,0.1c-1.6,0-3.2-0.1-4.8,0c-1.2,0.1-1.5-0.3-1.4-1.4c0.1-4.7,0-9.4,0-14.1c0-0.9-0.2-1.3-1.1-1.2
					c-0.1,0-0.2,0-0.2,0c-0.3,0-0.5,0-0.8,0.1C53.5,35.5,51.9,35.5,50.4,35.5L50.4,35.5"/>
			</defs>
			<clipPath id="SVGID_00000046300643050346071580000000995200991778889391_">
				<use xlink:href="#SVGID_00000011743716434078896630000002580306608516578444_"  style="overflow:visible;"/>
			</clipPath>
			<g style="clip-path:url(#SVGID_00000046300643050346071580000000995200991778889391_);">
				
					<linearGradient id="SVGID_00000116947527881396494470000008119462999151875512_" gradientUnits="userSpaceOnUse" x1="-692.1974" y1="297.2068" x2="-691.2274" y2="297.2068" gradientTransform="matrix(120.7327 -4.3216 4.3216 120.7327 82296.4922 -38824.7812)">
					<stop  offset="0" style="stop-color:#52FC73"/>
					<stop  offset="0.16" style="stop-color:#46F187"/>
					<stop  offset="0.43" style="stop-color:#34DFA6"/>
					<stop  offset="0.45" style="stop-color:#31DCAB"/>
					<stop  offset="0.65" style="stop-color:#1DC9CD"/>
					<stop  offset="0.82" style="stop-color:#11BDE2"/>
					<stop  offset="0.92" style="stop-color:#0CB9EA"/>
					<stop  offset="1" style="stop-color:#0CB9EA"/>
				</linearGradient>
				<polygon style="fill:url(#SVGID_00000116947527881396494470000008119462999151875512_);" points="34.9,35.5 70.9,34.2 
					71.8,59.8 35.8,61.1 				"/>
			</g>
		</g>
		<g>
			<defs>
				<path id="SVGID_00000066510627711163602420000013667850141972841613_" d="M56.3,65.2C55.3,65,54.2,65,53.1,65
					c-0.6,0-1.1,0-1.7,0s-0.9,0.3-0.9,0.9c0,1.8,0,3.7,0,5.5c0,0.6,0.2,0.9,0.9,0.9s1.6,0,2.5,0h2.5h7.5h1.1l0.2,0.1
					c0,1.5,0,2.9,0,4.4s0,2.9,0,4.4c0,0.7,0.1,1,0.9,1c1.8,0,3.6,0,5.3,0c0.7,0,0.9-0.2,0.9-0.9c0-5.1,0-10.3,0-15.4
					c0-0.6-0.1-1-0.8-1c-0.9,0-1.8,0-2.7,0c-1.6-0.1-3.2,0-4.9,0.1c-1.2-0.1-2.5-0.2-3.7-0.2S57.6,65,56.3,65.2"/>
			</defs>
			<clipPath id="SVGID_00000010998437506784905060000010624246126345228959_">
				<use xlink:href="#SVGID_00000066510627711163602420000013667850141972841613_"  style="overflow:visible;"/>
			</clipPath>
			<g style="clip-path:url(#SVGID_00000010998437506784905060000010624246126345228959_);">
				
					<linearGradient id="SVGID_00000169530216570975842310000001978776799775468931_" gradientUnits="userSpaceOnUse" x1="-692.1974" y1="297.2" x2="-691.2274" y2="297.2" gradientTransform="matrix(120.7327 -4.3216 4.3216 120.7327 82297.4609 -38797.6406)">
					<stop  offset="0" style="stop-color:#52FC73"/>
					<stop  offset="0.16" style="stop-color:#46F187"/>
					<stop  offset="0.43" style="stop-color:#34DFA6"/>
					<stop  offset="0.45" style="stop-color:#31DCAB"/>
					<stop  offset="0.65" style="stop-color:#1DC9CD"/>
					<stop  offset="0.82" style="stop-color:#11BDE2"/>
					<stop  offset="0.92" style="stop-color:#0CB9EA"/>
					<stop  offset="1" style="stop-color:#0CB9EA"/>
				</linearGradient>
				<polygon style="fill:url(#SVGID_00000169530216570975842310000001978776799775468931_);" points="49.9,65 72.2,64.2 72.9,82.3 
					50.6,83.1 				"/>
			</g>
		</g>
		<path class="st32" d="M168.1,41.6h4.9l8.4,17.2l8.4-17.2h4.9l-11,21.1v12.8h-4.4V62.7L168.1,41.6z"/>
		<path class="st32" d="M198.4,41.6h4.4V63c0,6.2,3.4,8.9,8.4,8.9s8.3-2.7,8.3-8.9V41.6h4.4v21.4c0,8.8-5.8,12.8-12.8,12.8
			s-12.7-4-12.7-12.8V41.6z"/>
		<path class="st32" d="M235.4,60v15.4h-4.4V41.6h4.4v15.7l14-15.7h5.6l-15.4,17l15.5,16.9h-5.8L235.4,60z"/>
		<path class="st32" d="M259,41.6h4.4v33.8H259V41.6z"/>
		<path class="st32" d="M281.9,41.6h22.9v3.6h-9.2v30.3h-4.4V45.2h-9.3L281.9,41.6z"/>
		<path class="st32" d="M327.2,45.2h-13.8v11.3h12.3v3.6h-12.3v11.7h13.8v3.6H309V41.5h18.2L327.2,45.2z"/>
		<path class="st32" d="M347.4,41.1c7.3,0,13.2,3.7,15.7,10.2h-5.3c-1.8-4.1-5.4-6.4-10.4-6.4c-7.1,0-12.4,5.2-12.4,13.5
			s5.3,13.4,12.4,13.4c5,0,8.5-2.3,10.4-6.3h5.3c-2.5,6.5-8.4,10.2-15.7,10.2c-9.5,0-16.9-7.1-16.9-17.2S338,41.1,347.4,41.1z"/>
		<path class="st32" d="M390.2,60.1H373v15.3h-4.4V41.6h4.4v14.9h17.2V41.6h4.4v33.8h-4.4L390.2,60.1z"/>
		<path class="st32" d="M428.4,41.5v33.9H424l-17.8-26.9v27h-4.4v-34h4.4L424,68.4V41.5H428.4z"/>
		<path class="st32" d="M450.9,75.8c-9.5,0-17-7.1-17-17.3s7.5-17.3,17-17.3s17,7.1,17,17.3S460.4,75.8,450.9,75.8z M450.9,71.9
			c7.1,0,12.5-5.2,12.5-13.5S458,45,450.9,45s-12.5,5.2-12.5,13.5S443.7,71.9,450.9,71.9z"/>
		<path class="st32" d="M477.6,41.6v30.3h11.9v3.6h-16.3V41.6H477.6z"/>
		<path class="st32" d="M507,75.8c-9.5,0-17-7.1-17-17.3s7.5-17.3,17-17.3c9.5,0,17,7.1,17,17.3S516.5,75.8,507,75.8z M507,71.9
			c7.1,0,12.5-5.2,12.5-13.5S514.1,45,507,45s-12.5,5.2-12.5,13.5S499.8,71.9,507,71.9z"/>
		<path class="st32" d="M560.2,51.4h-5.3c-1.8-3.9-5.5-6.2-10.3-6.2c-7.1,0-12.5,5.2-12.5,13.3s5.3,13.3,12.5,13.3
			c6.7,0,11.2-4.3,11.9-11H543v-3.6h18.2v3.4c-0.7,8.6-7.9,15.3-16.6,15.1c-9.5,0-17-7.1-17-17.2s7.5-17.3,17-17.3
			C551.7,41.2,557.7,44.9,560.2,51.4z"/>
		<path class="st32" d="M561.3,41.6h4.9l8.3,17.2l8.4-17.2h4.9l-11,21.1v12.8h-4.4V62.7L561.3,41.6z"/>
		<path class="st32" d="M187.7,89.3v21.8h8.5v1.9h-10.9V89.3H187.7z"/>
		<path class="st32" d="M207.5,113.3c-5.3,0-9.1-3.7-9.1-9.6s3.8-9.6,9.1-9.6c4.6-0.2,8.5,3.3,8.8,7.9c0,0.2,0,0.5,0,0.7
			c0,0.6,0,1.2-0.1,1.9h-15.4c0.2,4.3,3.2,6.6,6.7,6.6c3.2,0,5.3-1.7,6-4.2h2.5C215.1,110.7,212.1,113.3,207.5,113.3z M200.8,102.8
			h13.1c0.1-4.3-3-6.5-6.5-6.5S201.1,98.5,200.8,102.8L200.8,102.8z"/>
		<path class="st32" d="M221.5,96.5h-2.6v-2h2.6v-4.7h2.4v4.7h5.1v2h-5.1v11.5c0,2.3,0.8,3,2.9,3h2.2v2h-2.6c-3.2,0-5-1.3-5-5
			L221.5,96.5z"/>
		<path class="st32" d="M232.6,86.1h2.5l-0.4,6.6H233L232.6,86.1z"/>
		<path class="st32" d="M245.6,113.3c-4.2,0-7.2-2.1-7.5-5.5h2.4c0.2,2,2,3.5,5,3.5c2.7,0,4.1-1.4,4.1-3.2c0-4.6-11.1-1.9-11.1-8.9
			c0-2.8,2.6-5,6.5-5s6.6,2.1,6.8,5.7h-2.4c-0.1-2.1-1.7-3.6-4.5-3.6c-2.5,0-4.1,1.3-4.1,3c0,5,11,2.3,11.1,8.9
			C252.1,111.1,249.5,113.3,245.6,113.3z"/>
		<path class="st32" d="M274,113.3c-4.2,0-7.2-2.1-7.5-5.5h2.5c0.2,2,2,3.5,5,3.5c2.7,0,4.1-1.4,4.1-3.2c0-4.6-11.1-1.9-11.1-8.9
			c0-2.8,2.6-5,6.5-5s6.6,2.1,6.8,5.7h-2.4c-0.1-2.1-1.7-3.6-4.5-3.6c-2.5,0-4,1.3-4,3c0,5,11,2.3,11.1,8.9
			C280.4,111.1,277.8,113.3,274,113.3z"/>
		<path class="st32" d="M301.4,113.1H299v-3.3c-1.2,2.3-3.7,3.7-6.3,3.6c-4.2,0-7.5-2.6-7.5-8V94.5h2.4v10.6c0,4.1,2.2,6.2,5.6,6.2
			s5.9-2.2,5.9-6.7V94.5h2.4L301.4,113.1z"/>
		<path class="st32" d="M315.4,94.2c4.7,0,7.7,2.5,8.5,6.3h-2.5c-0.6-2.7-2.9-4.3-6-4.3c-3.6,0-6.6,2.5-6.6,7.5s3,7.6,6.6,7.6
			c3.1,0,5.3-1.6,6-4.3h2.5c-0.9,3.7-3.9,6.3-8.5,6.3c-5.2,0-9-3.7-9-9.6S310.1,94.2,315.4,94.2z"/>
		<path class="st32" d="M336.6,94.2c4.7,0,7.7,2.5,8.5,6.3h-2.5c-0.6-2.7-2.9-4.3-6-4.3c-3.6,0-6.6,2.5-6.6,7.5s3,7.6,6.6,7.6
			c3.1,0,5.3-1.6,6-4.3h2.5c-0.9,3.7-3.9,6.3-8.5,6.3c-5.2,0-9-3.7-9-9.6S331.4,94.2,336.6,94.2z"/>
		<path class="st32" d="M357.9,113.3c-5.3,0-9.1-3.7-9.1-9.6s3.8-9.6,9.1-9.6c4.6-0.2,8.5,3.3,8.8,7.9c0,0.2,0,0.5,0,0.7
			c0,0.6,0,1.2-0.1,1.9h-15.4c0.2,4.3,3.2,6.6,6.7,6.6c3.2,0,5.3-1.7,6-4.2h2.5C365.6,110.7,362.6,113.3,357.9,113.3z M351.2,102.8
			h13.1c0.1-4.3-3-6.5-6.5-6.5S351.5,98.5,351.2,102.8z"/>
		<path class="st32" d="M379.7,113.3c-5.3,0-9.1-3.7-9.1-9.6s3.8-9.6,9.1-9.6c4.6-0.2,8.5,3.3,8.8,7.9c0,0.2,0,0.5,0,0.7
			c0,0.6,0,1.2-0.1,1.9H373c0.2,4.3,3.2,6.6,6.7,6.6c3.2,0,5.3-1.7,6-4.2h2.5C387.4,110.7,384.4,113.3,379.7,113.3z M373,102.8h13.1
			c0.1-4.3-3-6.5-6.5-6.5S373.3,98.5,373,102.8z"/>
		<path class="st32" d="M401.3,94.2c3-0.1,5.9,1.6,7.3,4.3V87.9h2.4v25.2h-2.4v-4.2c-1.3,2.8-4.2,4.6-7.3,4.4
			c-5.1,0-8.9-3.8-8.9-9.6S396.2,94.2,401.3,94.2z M401.7,96.3c-3.9,0-6.9,2.7-6.9,7.4s3,7.5,6.9,7.5s6.9-2.9,6.9-7.5
			S405.5,96.3,401.7,96.3z"/>
		<path class="st32" d="M428.1,96.5h-2.6v-2h2.6v-4.7h2.4v4.7h5.1v2h-5.1v11.5c0,2.3,0.8,3,2.9,3h2.2v2h-2.6c-3.2,0-5-1.3-5-5
			L428.1,96.5z"/>
		<path class="st32" d="M447.3,113.3c-5.2,0-9.2-3.7-9.2-9.6s4.1-9.6,9.3-9.6s9.3,3.6,9.3,9.6S452.6,113.3,447.3,113.3z
			 M447.3,111.3c3.5,0,6.9-2.4,6.9-7.5s-3.3-7.5-6.9-7.5s-6.8,2.4-6.8,7.5S443.8,111.3,447.3,111.3z"/>
		<path class="st32" d="M469.4,94.2c3.1-0.1,6,1.6,7.4,4.3v-4h2.4v19c0,5.2-3.6,8.6-8.7,8.6c-4.8,0-8.1-2.4-8.9-6.3h2.4
			c0.8,2.5,3.1,4.2,6.5,4.2s6.3-2.3,6.3-6.6V109c-1.4,2.8-4.2,4.5-7.4,4.4c-5.1,0-8.9-3.8-8.9-9.6S464.3,94.2,469.4,94.2z
			 M469.8,96.3c-3.9,0-6.9,2.7-6.9,7.4s3,7.5,6.9,7.5s6.9-2.9,6.9-7.5S473.6,96.3,469.8,96.3z"/>
		<path class="st32" d="M493.2,113.3c-5.3,0-9.1-3.7-9.1-9.6s3.8-9.6,9.1-9.6c4.6-0.2,8.5,3.3,8.8,7.9c0,0.2,0,0.5,0,0.7
			c0,0.6,0,1.2-0.1,1.9h-15.4c0.2,4.3,3.2,6.6,6.7,6.6c3.2,0,5.3-1.7,6-4.2h2.5C500.8,110.7,497.8,113.3,493.2,113.3z M486.5,102.8
			h13c0.1-4.3-3-6.5-6.5-6.5S486.7,98.5,486.5,102.8z"/>
		<path class="st32" d="M507.1,96.5h-2.6v-2h2.6v-4.7h2.4v4.7h5.1v2h-5.1v11.5c0,2.3,0.8,3,2.9,3h2.2v2h-2.6c-3.2,0-5-1.3-5-5
			L507.1,96.5z"/>
		<path class="st32" d="M518.8,87.9h2.4v9.8c1.3-2.3,3.8-3.6,6.5-3.5c4.1,0,7.4,2.6,7.4,8v10.9h-2.3v-10.6c0-4.1-2.2-6.2-5.6-6.2
			s-5.9,2.2-5.9,6.7v10.1h-2.4V87.9z"/>
		<path class="st32" d="M548.8,113.3c-5.3,0-9.1-3.7-9.1-9.6s3.8-9.6,9.1-9.6c4.6-0.2,8.5,3.3,8.8,7.9c0,0.2,0,0.5,0,0.7
			c0,0.6,0,1.2-0.1,1.9h-15.4c0.2,4.3,3.2,6.6,6.7,6.6c3.2,0,5.3-1.7,6-4.2h2.5C556.5,110.7,553.5,113.3,548.8,113.3z M542.1,102.8
			h13.1c0.1-4.3-3-6.5-6.5-6.5S542.4,98.5,542.1,102.8z"/>
		<path class="st32" d="M564.9,113.1h-2.4V94.5h2.4v3.3c1-2.3,3.2-3.6,6.3-3.6v2.5h-0.6c-3.1,0-5.7,1.4-5.7,6L564.9,113.1z"/>
		<rect y="0" class="st33" width="610" height="170"/>
	</g>
</g>
</svg>
